<mxfile host="app.diagrams.net" modified="2024-06-25T10:33:11.247Z" agent="Mozilla/5.0 (Macintosh; Intel Mac OS X 10_15_7) AppleWebKit/537.36 (KHTML, like Gecko) Chrome/126.0.0.0 Safari/537.36" etag="BpR5uRDiN7-jpPAu7HyP" version="24.6.2" type="device">
  <diagram id="C5RBs43oDa-KdzZeNtuy" name="Page-1">
    <mxGraphModel dx="750" dy="546" grid="1" gridSize="10" guides="1" tooltips="1" connect="1" arrows="1" fold="1" page="1" pageScale="1" pageWidth="827" pageHeight="1169" math="0" shadow="0">
      <root>
        <mxCell id="WIyWlLk6GJQsqaUBKTNV-0" />
        <mxCell id="WIyWlLk6GJQsqaUBKTNV-1" parent="WIyWlLk6GJQsqaUBKTNV-0" />
        <mxCell id="Ir-QUd1LTxP1TF9gw9EZ-0" value="Start" style="ellipse;whiteSpace=wrap;html=1;" vertex="1" parent="WIyWlLk6GJQsqaUBKTNV-1">
          <mxGeometry x="160" y="10" width="120" height="60" as="geometry" />
        </mxCell>
        <mxCell id="Ir-QUd1LTxP1TF9gw9EZ-9" value="save shoe details" style="rounded=0;whiteSpace=wrap;html=1;" vertex="1" parent="WIyWlLk6GJQsqaUBKTNV-1">
          <mxGeometry x="610" y="420" width="100" height="50" as="geometry" />
        </mxCell>
        <mxCell id="Ir-QUd1LTxP1TF9gw9EZ-47" value="" style="edgeStyle=none;curved=1;rounded=0;orthogonalLoop=1;jettySize=auto;html=1;fontSize=12;startSize=8;endSize=8;" edge="1" parent="WIyWlLk6GJQsqaUBKTNV-1" source="Ir-QUd1LTxP1TF9gw9EZ-10" target="Ir-QUd1LTxP1TF9gw9EZ-9">
          <mxGeometry relative="1" as="geometry" />
        </mxCell>
        <mxCell id="Ir-QUd1LTxP1TF9gw9EZ-10" value="Input shoe name" style="shape=parallelogram;perimeter=parallelogramPerimeter;whiteSpace=wrap;html=1;fixedSize=1;" vertex="1" parent="WIyWlLk6GJQsqaUBKTNV-1">
          <mxGeometry x="600" y="310" width="120" height="60" as="geometry" />
        </mxCell>
        <mxCell id="Ir-QUd1LTxP1TF9gw9EZ-44" value="" style="edgeStyle=none;curved=1;rounded=0;orthogonalLoop=1;jettySize=auto;html=1;fontSize=12;startSize=8;endSize=8;" edge="1" parent="WIyWlLk6GJQsqaUBKTNV-1" source="Ir-QUd1LTxP1TF9gw9EZ-13" target="Ir-QUd1LTxP1TF9gw9EZ-10">
          <mxGeometry relative="1" as="geometry" />
        </mxCell>
        <mxCell id="Ir-QUd1LTxP1TF9gw9EZ-45" value="yes" style="edgeLabel;html=1;align=center;verticalAlign=middle;resizable=0;points=[];fontSize=12;" vertex="1" connectable="0" parent="Ir-QUd1LTxP1TF9gw9EZ-44">
          <mxGeometry x="-0.2599" y="-4" relative="1" as="geometry">
            <mxPoint as="offset" />
          </mxGeometry>
        </mxCell>
        <mxCell id="Ir-QUd1LTxP1TF9gw9EZ-13" value="Add new shoe" style="rounded=0;whiteSpace=wrap;html=1;" vertex="1" parent="WIyWlLk6GJQsqaUBKTNV-1">
          <mxGeometry x="610" y="205" width="100" height="50" as="geometry" />
        </mxCell>
        <mxCell id="Ir-QUd1LTxP1TF9gw9EZ-15" style="edgeStyle=none;curved=1;rounded=0;orthogonalLoop=1;jettySize=auto;html=1;exitX=0;exitY=1;exitDx=0;exitDy=0;fontSize=12;startSize=8;endSize=8;" edge="1" parent="WIyWlLk6GJQsqaUBKTNV-1" source="Ir-QUd1LTxP1TF9gw9EZ-13" target="Ir-QUd1LTxP1TF9gw9EZ-13">
          <mxGeometry relative="1" as="geometry" />
        </mxCell>
        <mxCell id="Ir-QUd1LTxP1TF9gw9EZ-46" style="edgeStyle=none;curved=1;rounded=0;orthogonalLoop=1;jettySize=auto;html=1;fontSize=12;startSize=8;endSize=8;" edge="1" parent="WIyWlLk6GJQsqaUBKTNV-1" source="Ir-QUd1LTxP1TF9gw9EZ-18" target="Ir-QUd1LTxP1TF9gw9EZ-13">
          <mxGeometry relative="1" as="geometry" />
        </mxCell>
        <mxCell id="Ir-QUd1LTxP1TF9gw9EZ-54" style="edgeStyle=none;curved=1;rounded=0;orthogonalLoop=1;jettySize=auto;html=1;fontSize=12;startSize=8;endSize=8;" edge="1" parent="WIyWlLk6GJQsqaUBKTNV-1" source="Ir-QUd1LTxP1TF9gw9EZ-18" target="Ir-QUd1LTxP1TF9gw9EZ-49">
          <mxGeometry relative="1" as="geometry" />
        </mxCell>
        <mxCell id="Ir-QUd1LTxP1TF9gw9EZ-18" value="What do you want to do?&lt;div&gt;User selects action&lt;/div&gt;" style="rhombus;whiteSpace=wrap;html=1;" vertex="1" parent="WIyWlLk6GJQsqaUBKTNV-1">
          <mxGeometry x="660" y="20" width="140" height="130" as="geometry" />
        </mxCell>
        <mxCell id="Ir-QUd1LTxP1TF9gw9EZ-25" value="" style="edgeStyle=none;curved=1;rounded=0;orthogonalLoop=1;jettySize=auto;html=1;fontSize=12;startSize=8;endSize=8;" edge="1" parent="WIyWlLk6GJQsqaUBKTNV-1" source="Ir-QUd1LTxP1TF9gw9EZ-19" target="Ir-QUd1LTxP1TF9gw9EZ-24">
          <mxGeometry relative="1" as="geometry" />
        </mxCell>
        <mxCell id="Ir-QUd1LTxP1TF9gw9EZ-53" value="Text" style="edgeLabel;html=1;align=center;verticalAlign=middle;resizable=0;points=[];fontSize=12;" vertex="1" connectable="0" parent="Ir-QUd1LTxP1TF9gw9EZ-25">
          <mxGeometry x="-0.1143" y="1" relative="1" as="geometry">
            <mxPoint as="offset" />
          </mxGeometry>
        </mxCell>
        <mxCell id="Ir-QUd1LTxP1TF9gw9EZ-19" value="Log mileage" style="rounded=0;whiteSpace=wrap;html=1;" vertex="1" parent="WIyWlLk6GJQsqaUBKTNV-1">
          <mxGeometry x="450" y="200" width="120" height="60" as="geometry" />
        </mxCell>
        <mxCell id="Ir-QUd1LTxP1TF9gw9EZ-20" style="edgeStyle=none;curved=1;rounded=0;orthogonalLoop=1;jettySize=auto;html=1;entryX=0.333;entryY=0.033;entryDx=0;entryDy=0;entryPerimeter=0;fontSize=12;startSize=8;endSize=8;" edge="1" parent="WIyWlLk6GJQsqaUBKTNV-1" source="Ir-QUd1LTxP1TF9gw9EZ-18" target="Ir-QUd1LTxP1TF9gw9EZ-19">
          <mxGeometry relative="1" as="geometry" />
        </mxCell>
        <mxCell id="Ir-QUd1LTxP1TF9gw9EZ-21" value="Option 1&lt;div&gt;&lt;br&gt;&lt;/div&gt;" style="edgeLabel;html=1;align=center;verticalAlign=middle;resizable=0;points=[];fontSize=12;" vertex="1" connectable="0" parent="Ir-QUd1LTxP1TF9gw9EZ-20">
          <mxGeometry x="0.0089" relative="1" as="geometry">
            <mxPoint y="1" as="offset" />
          </mxGeometry>
        </mxCell>
        <mxCell id="Ir-QUd1LTxP1TF9gw9EZ-28" value="" style="edgeStyle=none;curved=1;rounded=0;orthogonalLoop=1;jettySize=auto;html=1;fontSize=12;startSize=8;endSize=8;" edge="1" parent="WIyWlLk6GJQsqaUBKTNV-1" source="Ir-QUd1LTxP1TF9gw9EZ-24" target="Ir-QUd1LTxP1TF9gw9EZ-27">
          <mxGeometry relative="1" as="geometry" />
        </mxCell>
        <mxCell id="Ir-QUd1LTxP1TF9gw9EZ-24" value="Input shoe type" style="shape=parallelogram;perimeter=parallelogramPerimeter;whiteSpace=wrap;html=1;fixedSize=1;rounded=0;" vertex="1" parent="WIyWlLk6GJQsqaUBKTNV-1">
          <mxGeometry x="450" y="330" width="120" height="60" as="geometry" />
        </mxCell>
        <mxCell id="Ir-QUd1LTxP1TF9gw9EZ-30" style="edgeStyle=orthogonalEdgeStyle;rounded=0;orthogonalLoop=1;jettySize=auto;html=1;fontSize=12;startSize=8;endSize=8;entryX=1;entryY=0.25;entryDx=0;entryDy=0;" edge="1" parent="WIyWlLk6GJQsqaUBKTNV-1" source="Ir-QUd1LTxP1TF9gw9EZ-27" target="Ir-QUd1LTxP1TF9gw9EZ-24">
          <mxGeometry relative="1" as="geometry">
            <mxPoint x="600" y="510" as="targetPoint" />
            <Array as="points">
              <mxPoint x="565" y="510" />
            </Array>
          </mxGeometry>
        </mxCell>
        <mxCell id="Ir-QUd1LTxP1TF9gw9EZ-31" value="no" style="edgeLabel;html=1;align=center;verticalAlign=middle;resizable=0;points=[];fontSize=12;" vertex="1" connectable="0" parent="Ir-QUd1LTxP1TF9gw9EZ-30">
          <mxGeometry x="-0.0869" relative="1" as="geometry">
            <mxPoint as="offset" />
          </mxGeometry>
        </mxCell>
        <mxCell id="Ir-QUd1LTxP1TF9gw9EZ-33" value="" style="edgeStyle=none;curved=1;rounded=0;orthogonalLoop=1;jettySize=auto;html=1;fontSize=12;startSize=8;endSize=8;" edge="1" parent="WIyWlLk6GJQsqaUBKTNV-1" source="Ir-QUd1LTxP1TF9gw9EZ-27" target="Ir-QUd1LTxP1TF9gw9EZ-32">
          <mxGeometry relative="1" as="geometry" />
        </mxCell>
        <mxCell id="Ir-QUd1LTxP1TF9gw9EZ-34" value="yes" style="edgeLabel;html=1;align=center;verticalAlign=middle;resizable=0;points=[];fontSize=12;" vertex="1" connectable="0" parent="Ir-QUd1LTxP1TF9gw9EZ-33">
          <mxGeometry x="-0.32" y="-2" relative="1" as="geometry">
            <mxPoint as="offset" />
          </mxGeometry>
        </mxCell>
        <mxCell id="Ir-QUd1LTxP1TF9gw9EZ-27" value="Does shoe exist?" style="rhombus;whiteSpace=wrap;html=1;" vertex="1" parent="WIyWlLk6GJQsqaUBKTNV-1">
          <mxGeometry x="470" y="450" width="80" height="80" as="geometry" />
        </mxCell>
        <mxCell id="Ir-QUd1LTxP1TF9gw9EZ-36" value="" style="edgeStyle=none;curved=1;rounded=0;orthogonalLoop=1;jettySize=auto;html=1;fontSize=12;startSize=8;endSize=8;" edge="1" parent="WIyWlLk6GJQsqaUBKTNV-1" source="Ir-QUd1LTxP1TF9gw9EZ-32" target="Ir-QUd1LTxP1TF9gw9EZ-35">
          <mxGeometry relative="1" as="geometry" />
        </mxCell>
        <mxCell id="Ir-QUd1LTxP1TF9gw9EZ-32" value="Innput mileage" style="shape=parallelogram;perimeter=parallelogramPerimeter;whiteSpace=wrap;html=1;fixedSize=1;" vertex="1" parent="WIyWlLk6GJQsqaUBKTNV-1">
          <mxGeometry x="450" y="600" width="120" height="60" as="geometry" />
        </mxCell>
        <mxCell id="Ir-QUd1LTxP1TF9gw9EZ-38" value="" style="edgeStyle=none;curved=1;rounded=0;orthogonalLoop=1;jettySize=auto;html=1;fontSize=12;startSize=8;endSize=8;" edge="1" parent="WIyWlLk6GJQsqaUBKTNV-1" source="Ir-QUd1LTxP1TF9gw9EZ-35" target="Ir-QUd1LTxP1TF9gw9EZ-37">
          <mxGeometry relative="1" as="geometry" />
        </mxCell>
        <mxCell id="Ir-QUd1LTxP1TF9gw9EZ-39" value="yes" style="edgeLabel;html=1;align=center;verticalAlign=middle;resizable=0;points=[];fontSize=12;" vertex="1" connectable="0" parent="Ir-QUd1LTxP1TF9gw9EZ-38">
          <mxGeometry x="-0.0207" y="-1" relative="1" as="geometry">
            <mxPoint as="offset" />
          </mxGeometry>
        </mxCell>
        <mxCell id="Ir-QUd1LTxP1TF9gw9EZ-35" value="valid mileage?" style="rhombus;whiteSpace=wrap;html=1;" vertex="1" parent="WIyWlLk6GJQsqaUBKTNV-1">
          <mxGeometry x="460" y="710" width="80" height="80" as="geometry" />
        </mxCell>
        <mxCell id="Ir-QUd1LTxP1TF9gw9EZ-41" value="" style="edgeStyle=none;curved=1;rounded=0;orthogonalLoop=1;jettySize=auto;html=1;fontSize=12;startSize=8;endSize=8;" edge="1" parent="WIyWlLk6GJQsqaUBKTNV-1" source="Ir-QUd1LTxP1TF9gw9EZ-37" target="Ir-QUd1LTxP1TF9gw9EZ-40">
          <mxGeometry relative="1" as="geometry" />
        </mxCell>
        <mxCell id="Ir-QUd1LTxP1TF9gw9EZ-37" value="Read previous mileage" style="rounded=0;whiteSpace=wrap;html=1;" vertex="1" parent="WIyWlLk6GJQsqaUBKTNV-1">
          <mxGeometry x="440" y="860" width="120" height="60" as="geometry" />
        </mxCell>
        <mxCell id="Ir-QUd1LTxP1TF9gw9EZ-43" value="" style="edgeStyle=none;curved=1;rounded=0;orthogonalLoop=1;jettySize=auto;html=1;fontSize=12;startSize=8;endSize=8;" edge="1" parent="WIyWlLk6GJQsqaUBKTNV-1" source="Ir-QUd1LTxP1TF9gw9EZ-40" target="Ir-QUd1LTxP1TF9gw9EZ-42">
          <mxGeometry relative="1" as="geometry" />
        </mxCell>
        <mxCell id="Ir-QUd1LTxP1TF9gw9EZ-40" value="add previous mileage to new mileage" style="rounded=0;whiteSpace=wrap;html=1;" vertex="1" parent="WIyWlLk6GJQsqaUBKTNV-1">
          <mxGeometry x="440" y="980" width="120" height="60" as="geometry" />
        </mxCell>
        <mxCell id="Ir-QUd1LTxP1TF9gw9EZ-42" value="Store nileage" style="whiteSpace=wrap;html=1;rounded=0;" vertex="1" parent="WIyWlLk6GJQsqaUBKTNV-1">
          <mxGeometry x="440" y="1090" width="120" height="60" as="geometry" />
        </mxCell>
        <mxCell id="Ir-QUd1LTxP1TF9gw9EZ-51" value="" style="edgeStyle=none;curved=1;rounded=0;orthogonalLoop=1;jettySize=auto;html=1;fontSize=12;startSize=8;endSize=8;" edge="1" parent="WIyWlLk6GJQsqaUBKTNV-1" source="Ir-QUd1LTxP1TF9gw9EZ-49" target="Ir-QUd1LTxP1TF9gw9EZ-50">
          <mxGeometry relative="1" as="geometry" />
        </mxCell>
        <mxCell id="Ir-QUd1LTxP1TF9gw9EZ-49" value="view shoe mileage" style="rounded=0;whiteSpace=wrap;html=1;" vertex="1" parent="WIyWlLk6GJQsqaUBKTNV-1">
          <mxGeometry x="770" y="205" width="120" height="60" as="geometry" />
        </mxCell>
        <mxCell id="Ir-QUd1LTxP1TF9gw9EZ-56" value="" style="edgeStyle=none;curved=1;rounded=0;orthogonalLoop=1;jettySize=auto;html=1;fontSize=12;startSize=8;endSize=8;" edge="1" parent="WIyWlLk6GJQsqaUBKTNV-1" source="Ir-QUd1LTxP1TF9gw9EZ-50" target="Ir-QUd1LTxP1TF9gw9EZ-55">
          <mxGeometry relative="1" as="geometry" />
        </mxCell>
        <mxCell id="Ir-QUd1LTxP1TF9gw9EZ-50" value="input which shoe" style="shape=parallelogram;perimeter=parallelogramPerimeter;whiteSpace=wrap;html=1;fixedSize=1;" vertex="1" parent="WIyWlLk6GJQsqaUBKTNV-1">
          <mxGeometry x="770" y="330" width="120" height="60" as="geometry" />
        </mxCell>
        <mxCell id="Ir-QUd1LTxP1TF9gw9EZ-55" value="Display mileage" style="rounded=0;whiteSpace=wrap;html=1;" vertex="1" parent="WIyWlLk6GJQsqaUBKTNV-1">
          <mxGeometry x="770" y="430" width="120" height="60" as="geometry" />
        </mxCell>
        <mxCell id="Ir-QUd1LTxP1TF9gw9EZ-57" style="edgeStyle=none;curved=1;rounded=0;orthogonalLoop=1;jettySize=auto;html=1;entryX=0.643;entryY=0.846;entryDx=0;entryDy=0;entryPerimeter=0;fontSize=12;startSize=8;endSize=8;" edge="1" parent="WIyWlLk6GJQsqaUBKTNV-1" source="Ir-QUd1LTxP1TF9gw9EZ-9" target="Ir-QUd1LTxP1TF9gw9EZ-18">
          <mxGeometry relative="1" as="geometry">
            <Array as="points">
              <mxPoint x="770" y="330" />
            </Array>
          </mxGeometry>
        </mxCell>
        <mxCell id="Ir-QUd1LTxP1TF9gw9EZ-61" value="" style="edgeStyle=none;curved=1;rounded=0;orthogonalLoop=1;jettySize=auto;html=1;fontSize=12;startSize=8;endSize=8;" edge="1" parent="WIyWlLk6GJQsqaUBKTNV-1" source="Ir-QUd1LTxP1TF9gw9EZ-58" target="Ir-QUd1LTxP1TF9gw9EZ-60">
          <mxGeometry relative="1" as="geometry" />
        </mxCell>
        <mxCell id="Ir-QUd1LTxP1TF9gw9EZ-58" value="Delete shoe entry" style="rounded=0;whiteSpace=wrap;html=1;" vertex="1" parent="WIyWlLk6GJQsqaUBKTNV-1">
          <mxGeometry x="930" y="205" width="120" height="60" as="geometry" />
        </mxCell>
        <mxCell id="Ir-QUd1LTxP1TF9gw9EZ-62" style="edgeStyle=none;curved=1;rounded=0;orthogonalLoop=1;jettySize=auto;html=1;entryX=1;entryY=0.5;entryDx=0;entryDy=0;fontSize=12;startSize=8;endSize=8;" edge="1" parent="WIyWlLk6GJQsqaUBKTNV-1" target="Ir-QUd1LTxP1TF9gw9EZ-18">
          <mxGeometry relative="1" as="geometry">
            <mxPoint x="1060" y="470" as="sourcePoint" />
            <Array as="points">
              <mxPoint x="1200" y="120" />
            </Array>
          </mxGeometry>
        </mxCell>
        <mxCell id="Ir-QUd1LTxP1TF9gw9EZ-59" value="Delete shoe" style="rounded=0;whiteSpace=wrap;html=1;" vertex="1" parent="WIyWlLk6GJQsqaUBKTNV-1">
          <mxGeometry x="930" y="430" width="120" height="60" as="geometry" />
        </mxCell>
        <mxCell id="Ir-QUd1LTxP1TF9gw9EZ-65" value="" style="edgeStyle=none;curved=1;rounded=0;orthogonalLoop=1;jettySize=auto;html=1;fontSize=12;startSize=8;endSize=8;" edge="1" parent="WIyWlLk6GJQsqaUBKTNV-1" source="Ir-QUd1LTxP1TF9gw9EZ-60" target="Ir-QUd1LTxP1TF9gw9EZ-59">
          <mxGeometry relative="1" as="geometry" />
        </mxCell>
        <mxCell id="Ir-QUd1LTxP1TF9gw9EZ-60" value="input shoe" style="shape=parallelogram;perimeter=parallelogramPerimeter;whiteSpace=wrap;html=1;fixedSize=1;" vertex="1" parent="WIyWlLk6GJQsqaUBKTNV-1">
          <mxGeometry x="920" y="320" width="120" height="60" as="geometry" />
        </mxCell>
        <mxCell id="Ir-QUd1LTxP1TF9gw9EZ-63" style="edgeStyle=none;curved=1;rounded=0;orthogonalLoop=1;jettySize=auto;html=1;entryX=0.979;entryY=0.577;entryDx=0;entryDy=0;entryPerimeter=0;fontSize=12;startSize=8;endSize=8;" edge="1" parent="WIyWlLk6GJQsqaUBKTNV-1" source="Ir-QUd1LTxP1TF9gw9EZ-55" target="Ir-QUd1LTxP1TF9gw9EZ-18">
          <mxGeometry relative="1" as="geometry">
            <Array as="points">
              <mxPoint x="1000" y="260" />
            </Array>
          </mxGeometry>
        </mxCell>
        <mxCell id="Ir-QUd1LTxP1TF9gw9EZ-66" value="" style="ellipse;whiteSpace=wrap;html=1;" vertex="1" parent="WIyWlLk6GJQsqaUBKTNV-1">
          <mxGeometry x="790" y="670" width="120" height="80" as="geometry" />
        </mxCell>
      </root>
    </mxGraphModel>
  </diagram>
</mxfile>
